<svg id="visual" viewBox="0 0 900 600" width="900" height="600" xmlns="http://www.w3.org/2000/svg" xmlns:xlink="http://www.w3.org/1999/xlink" version="1.1"><path d="M0 85L82 163L164 163L245 151L327 55L409 151L491 139L573 79L655 103L736 121L818 115L900 121L900 0L818 0L736 0L655 0L573 0L491 0L409 0L327 0L245 0L164 0L82 0L0 0Z" fill="#ffffff"></path><path d="M0 325L82 385L164 331L245 343L327 235L409 301L491 259L573 379L655 313L736 229L818 217L900 229L900 119L818 113L736 119L655 101L573 77L491 137L409 149L327 53L245 149L164 161L82 161L0 83Z" fill="#f1f1f2"></path><path d="M0 433L82 469L164 427L245 451L327 301L409 343L491 361L573 421L655 379L736 307L818 283L900 301L900 227L818 215L736 227L655 311L573 377L491 257L409 299L327 233L245 341L164 329L82 383L0 323Z" fill="#e3e3e6"></path><path d="M0 541L82 559L164 559L245 565L327 523L409 565L491 505L573 553L655 511L736 499L818 559L900 565L900 299L818 281L736 305L655 377L573 419L491 359L409 341L327 299L245 449L164 425L82 467L0 431Z" fill="#d5d5d9"></path><path d="M0 601L82 601L164 601L245 601L327 601L409 601L491 601L573 601L655 601L736 601L818 601L900 601L900 563L818 557L736 497L655 509L573 551L491 503L409 563L327 521L245 563L164 557L82 557L0 539Z" fill="#c7c8cd"></path></svg>